<?xml version="1.0" encoding="utf-8"?>
<!-- Generator: Adobe Illustrator 21.1.0, SVG Export Plug-In . SVG Version: 6.00 Build 0)  -->
<svg version="1.1" id="Layer_1" xmlns="http://www.w3.org/2000/svg" xmlns:xlink="http://www.w3.org/1999/xlink" x="0px" y="0px"
	 viewBox="0 0 150 16.5" style="enable-background:new 0 0 150 16.5;" xml:space="preserve">
<style type="text/css">
	.st0{fill:#EDEDED;}
</style>
<g>
	<path class="st0" d="M9.2,2.1c1.1,0.9,1.6,2.2,1.6,3.9c0,0.9-0.2,1.8-0.5,2.6c-0.4,0.8-1,1.5-1.8,2s-1.9,0.8-3.2,0.8H3.1v5H0V0.6
		h4.8C6.7,0.6,8.2,1.1,9.2,2.1z M6.7,8C7.1,7.7,7.3,7.4,7.5,7c0.2-0.4,0.2-0.7,0.2-1c0-0.6-0.2-1.1-0.5-1.6c-0.3-0.5-1-0.8-1.9-0.8
		H3.1v4.8h2.2C5.9,8.4,6.4,8.2,6.7,8z"/>
	<path class="st0" d="M19.8,13.3h-5.2l-1.3,3.1h-3.1L17.3,0h0.2l7.1,16.4H21L19.8,13.3z M18.8,10.7l-1.5-3.8l-1.6,3.8H18.8z"/>
	<path class="st0" d="M35.1,0.6v3h-3.8v12.7h-3.1V3.6h-3.7v-3L35.1,0.6z"/>
	<path class="st0" d="M46.6,16.4l-3.3-5h-2.1v5h-3.1V0.6h4.8c2,0,3.5,0.5,4.5,1.4c1.1,0.9,1.6,2.2,1.6,3.9c0,1-0.2,1.9-0.6,2.7
		c-0.4,0.8-1,1.5-1.9,2l3.7,5.7L46.6,16.4z M41.2,8.4h2.2c0.8,0,1.5-0.2,1.8-0.7s0.6-1,0.6-1.6s-0.2-1.1-0.5-1.6
		c-0.3-0.5-1-0.8-1.9-0.8h-2.2L41.2,8.4z"/>
	<path class="st0" d="M52.8,0.8c0.3-0.3,0.7-0.4,1.1-0.4c0.4,0,0.8,0.1,1.1,0.4c0.3,0.3,0.5,0.7,0.5,1.1S55.3,2.7,55,3
		c-0.3,0.3-0.7,0.4-1.1,0.4c-0.4,0-0.8-0.1-1.1-0.4c-0.3-0.3-0.5-0.6-0.5-1.1C52.3,1.5,52.4,1.1,52.8,0.8z M55.3,5.1v11.3h-3V5.1
		L55.3,5.1z"/>
	<path class="st0" d="M68.8,16c-0.9,0.3-1.8,0.5-2.8,0.5c-1.6,0-3.1-0.4-4.3-1.1c-1.2-0.7-2.1-1.7-2.8-2.9c-0.6-1.2-1-2.5-1-4
		c0-1.6,0.3-3,1-4.2c0.6-1.2,1.5-2.2,2.7-2.9c1.2-0.7,2.5-1,4-1c1,0,1.8,0.1,2.7,0.4c0.8,0.3,1.5,0.6,2.1,1l-1.2,2.9
		c-1.1-0.9-2.3-1.3-3.5-1.3c-0.8,0-1.5,0.2-2.2,0.7c-0.7,0.4-1.3,1-1.7,1.8c-0.4,0.8-0.6,1.6-0.6,2.5c0,1,0.2,1.9,0.6,2.7
		c0.4,0.8,0.9,1.4,1.6,1.8c0.7,0.4,1.5,0.6,2.5,0.6c0.8,0,1.5-0.1,2.1-0.4s1.1-0.5,1.5-0.9l1.3,2.8C70.3,15.4,69.7,15.7,68.8,16z"/>
	<path class="st0" d="M73.7,0.8c0.3-0.3,0.7-0.4,1.1-0.4c0.4,0,0.8,0.1,1.1,0.4c0.3,0.3,0.5,0.7,0.5,1.1S76.3,2.7,76,3
		c-0.3,0.3-0.7,0.4-1.1,0.4c-0.4,0-0.8-0.1-1.1-0.4s-0.5-0.6-0.5-1.1S73.4,1.1,73.7,0.8z M76.3,5.1v11.3h-3V5.1L76.3,5.1z"/>
	<path class="st0" d="M87.7,13.3h-5.2l-1.3,3.1h-3.1L85.2,0h0.2l7.1,16.4h-3.6L87.7,13.3z M86.6,10.7l-1.5-3.8l-1.6,3.8H86.6z"/>
	<path class="st0" d="M111.6,0.6v3h-6.7v3.6h5.8v3h-5.8v6.2h-3.1V0.6L111.6,0.6z"/>
	<path class="st0" d="M125.3,0.6v3h-7.6V7h6.8v3h-6.8v3.4h7.9v3h-11V0.6L125.3,0.6z"/>
	<path class="st0" d="M128.7,0.8c0.3-0.3,0.7-0.4,1.1-0.4c0.4,0,0.8,0.1,1.1,0.4c0.3,0.3,0.5,0.7,0.5,1.1S131.3,2.7,131,3
		c-0.3,0.3-0.7,0.4-1.1,0.4c-0.4,0-0.8-0.1-1.1-0.4c-0.3-0.3-0.5-0.6-0.5-1.1S128.4,1.1,128.7,0.8z M131.3,5.1v11.3h-3V5.1
		L131.3,5.1z"/>
	<path class="st0" d="M135,4.5c0.7-1.2,1.7-2.2,2.9-3c1.2-0.7,2.6-1.1,4-1.1c1.4,0,2.8,0.4,4,1.1s2.2,1.7,3,3c0.7,1.2,1.1,2.6,1.1,4
		c0,1.5-0.4,2.8-1.1,4c-0.7,1.2-1.7,2.2-2.9,2.9c-1.2,0.7-2.6,1.1-4,1.1c-1.5,0-2.8-0.4-4-1.1s-2.2-1.7-2.9-2.9
		c-0.7-1.2-1.1-2.6-1.1-4C133.9,7.1,134.3,5.7,135,4.5z M137.8,11c0.4,0.8,1,1.4,1.8,1.8c0.7,0.5,1.6,0.7,2.5,0.7
		c0.9,0,1.7-0.2,2.4-0.7c0.7-0.4,1.3-1.1,1.7-1.8c0.4-0.8,0.6-1.6,0.6-2.5c0-0.9-0.2-1.8-0.6-2.6c-0.4-0.8-1-1.4-1.7-1.8
		c-0.7-0.5-1.5-0.7-2.4-0.7c-0.9,0-1.7,0.2-2.4,0.7c-0.7,0.4-1.3,1.1-1.7,1.8c-0.4,0.8-0.6,1.6-0.6,2.6
		C137.1,9.4,137.3,10.3,137.8,11z"/>
</g>
</svg>
